<svg xmlns="http://www.w3.org/2000/svg" enable-background="new 0 0 50 50" viewBox="0 0 50 50" id="business-presentation">
  <path fill="#9EAAC2" d="M21.052,34.81668l-0.1328-18.0853c-0.0029-0.4347,0.3046-0.9694,0.6835-1.1887l22.3348-12.8777
				c0.3818-0.2176,0.6918-0.0395,0.6947,0.3951l0.1312,18.0882c0.0058,0.4364-0.3029,0.9666-0.6819,1.1857l-22.3346,12.8778
				C21.3649,35.42929,21.0532,35.25418,21.052,34.81668z"></path>
  <polygon fill="#FFF" points="43.935 21.269 21.874 33.99 21.746 16.635 43.807 3.92"></polygon>
  <path fill="#E3E6F0" d="M21.2538,35.25729l-1.182-0.6694c-0.1228-0.0705-0.2018-0.2241-0.2018-0.4406l-0.1312-18.0882
				c-0.0057-0.4363,0.30181-0.971,0.6836-1.1886l22.3347-12.8777c0.19-0.1074,0.3643-0.1194,0.4901-0.0472l1.1832,0.6739
				c-0.1287-0.0739-0.3011-0.0647-0.4929,0.0455l-22.3348,12.8777c-0.3789,0.2193-0.6864,0.754-0.6835,1.1887l0.1328,18.0853
				C21.052,35.03308,21.131,35.18668,21.2538,35.25729z"></path>
  <path fill="#E3E6F0" d="M28.9333,15.16218l0.0151,6.1667l0.0154,6.0295l13.1936-7.6159V7.52788L28.9333,15.16218z
			 M40.8533,8.42688l1.18131-0.6902L42.05,9.10219l-1.1967,0.6744V8.42688z M40.8533,9.93029l1.1967-0.6901v1.3654l-1.1967,0.691
			V9.93029z M39.5493,13.55048v-1.3646l1.18131-0.6901l0.01529,1.3654L39.5493,13.55048z M40.7459,13.01408v1.3654l-1.1966,0.691
			v-1.3811L40.7459,13.01408z M39.5493,12.04788v-1.3654l1.18131-0.6902v1.3655L39.5493,12.04788z M38.2453,15.82178v-1.3654
			l1.18131-0.6902l0.01539,1.3655L38.2453,15.82178z M39.44201,16.63508l-1.1967,0.6893v-1.3646l1.18131-0.6744L39.44201,16.63508z
			 M38.2453,14.30258v-1.3654l1.18131-0.6744v1.3654L38.2453,14.30258z M38.23,9.93029l1.1812-0.6901l0.01541,1.3654l-1.19661,0.691
			V9.93029z M36.9259,15.07049v-1.3663l1.1814-0.6901l0.0154,1.3654L36.9259,15.07049z M38.1227,14.51838v1.3803l-0.4756,0.2603
			l-0.7058,0.4141l-0.0154-1.3654L38.1227,14.51838z M36.9259,13.56618v-1.3654l1.1814-0.6902v1.3655L36.9259,13.56618z
			 M35.622,18.84359v-1.3655l1.19661-0.6901v1.3654L35.622,18.84359z M36.81861,18.29229v1.3654l-1.19661,0.6893v-1.3654
			L36.81861,18.29229z M35.622,17.34009v-1.3803l1.1813-0.6744l0.01531,1.3646L35.622,17.34009z M35.60661,11.44948l1.19669-0.6901
			v1.3654l-1.19669,0.6901V11.44948z M35.60661,12.95288l1.19669-0.6901v1.3654l-1.19669,0.6893V12.95288z M34.3027,16.58879
			v-1.3654l1.1966-0.6901v1.3654L34.3027,16.58879z M35.4993,16.03669v1.3654l-1.1813,0.6893l-0.0153-1.3646L35.4993,16.03669z
			 M34.3027,15.07049v-1.3506l1.1812-0.6901l0.0154,1.3654L34.3027,15.07049z M32.9832,12.96778l1.1813-0.6901l0.0154,1.3654
			l-1.1967,0.6901V12.96778z M32.9832,14.47118l1.1967-0.6892v1.3645l-1.1967,0.691V14.47118z M31.6793,13.71988l1.18131-0.6901
			v1.3654l-1.18131,0.6902V13.71988z M31.6793,15.22338l1.18131-0.6901l0.01529,1.3654l-1.1966,0.6901V15.22338z M31.6793,16.72679
			l1.1966-0.6901v1.3654l-1.1966,0.6893V16.72679z M30.3753,20.36268v-1.3654l1.1812-0.6901l0.0153,1.3654L30.3753,20.36268z
			 M31.5718,21.19179l-1.1965,0.6735v-1.3646l0.8284-0.4752l0.3528-0.1992L31.5718,21.19179z M30.3753,18.85929v-1.3654
			l1.1812-0.6902v1.3654L30.3753,18.85929z M30.3599,14.47118l1.1812-0.6744l0.0154,1.3654l-1.1966,0.6753V14.47118z
			 M29.0559,15.23818l1.1813-0.6892v1.3645l-1.1813,0.691V15.23818z M29.0559,16.74169l1.1813-0.6893l0.01541,1.3646
			l-1.19671,0.6901V16.74169z M30.25261,17.55499v1.3654l-1.18131,0.691l-0.0154-1.3663L30.25261,17.55499z M30.1451,20.50068
			l-1.0738,0.6133v-1.3654l1.18131-0.6893v1.3803L30.1451,20.50068z M30.25261,20.57759v1.3654l-1.18131,0.6893v-1.3645
			L30.25261,20.57759z M30.2679,26.46819l-1.18129,0.6753v-1.3654l1.18129-0.691V26.46819z M30.2679,24.94988l-1.18129,0.6902
			l-0.01531-1.3654l1.1966-0.6902V24.94988z M29.0713,24.13659v-1.3654l1.18131-0.6901l0.01529,1.3654L29.0713,24.13659z
			 M31.5565,15.30029v1.3654l-1.1812,0.6744l-0.0154-1.3497L31.5565,15.30029z M31.5718,21.32889v1.3654l-1.1813,0.6753
			l-0.0152-1.3506L31.5718,21.32889z M31.5718,22.83319v1.3655l-1.1813,0.6892v-1.3654L31.5718,22.83319z M30.3905,26.39139v-1.3646
			l1.1813-0.691l0.0154,1.3654L30.3905,26.39139z M32.8759,17.55499v1.3654l-0.5676,0.3224l-0.6136,0.3686l-0.0154-1.3811
			L32.8759,17.55499z M32.8759,19.05928v1.3654l-1.1812,0.6893v-1.3654l0.7363-0.4289L32.8759,19.05928z M32.8912,24.94988
			l-1.1812,0.6902l-0.0153-1.3803l1.1965-0.6753V24.94988z M32.8912,23.43159l-1.1965,0.6893v-1.3654l1.1965-0.6893V23.43159z
			 M31.6947,22.61749v-1.3655l1.1812-0.6901l0.0153,1.3654L31.6947,22.61749z M34.1799,15.28539v1.3646l-1.18129,0.6901
			l-0.01541-1.3654L34.1799,15.28539z M34.1799,16.80368v1.3654l-1.18129,0.6745v-1.3655L34.1799,16.80368z M34.1952,24.19868
			l-1.1813,0.6744v-1.3655l1.1813-0.6744V24.19868z M34.1952,22.67949l-1.1813,0.6901l-0.01529-1.3654l1.19659-0.691V22.67949z
			 M34.1952,21.17599l-1.19659,0.6893v-1.3646l1.19659-0.6901V21.17599z M32.99861,20.36268v-1.3654l0.81309-0.4752l0.3682-0.2149
			l0.0153,1.3654L32.99861,20.36268z M35.4839,11.51058v1.3655l-1.1812,0.6901l-0.0154-1.3654L35.4839,11.51058z M35.4993,17.55499
			v1.3506l-1.1813,0.6901l-0.0153-1.3506L35.4993,17.55499z M35.51461,23.43159l-1.18141,0.6893l-0.0152-1.3654l1.19661-0.6893
			V23.43159z M35.51461,21.92728l-1.19661,0.6902v-1.3655l1.19661-0.6901V21.92728z M34.318,21.09829v-1.3497l1.1813-0.6893
			l0.01531,1.3654L34.318,21.09829z M36.8033,13.76618v1.3655l-1.1813,0.6901l-0.01539-1.3654L36.8033,13.76618z M36.81861,19.79489
			v1.3654l-1.18131,0.6901l-0.0153-1.3654L36.81861,19.79489z M35.6373,23.36959v-1.3811l1.18131-0.6753l0.01529,1.3663
			L35.6373,23.36959z M38.1073,10.00809v1.3645l-1.1814,0.691l-0.01529-1.3663L38.1073,10.00809z M38.1227,16.03669v1.3654
			l-1.1814,0.6893l-0.0154-1.3646L38.1227,16.03669z M38.1227,17.53929v1.3663l-1.1814,0.6901v-1.3654L38.1227,17.53929z
			 M38.13791,21.92728l-1.18129,0.6753l-0.01531-1.3654l1.1966-0.691V21.92728z M36.9413,21.09829v-1.3646l1.1814-0.6901
			l0.0152,1.3654L36.9413,21.09829z M39.42661,10.75939v1.3654l-1.18131,0.6744l-0.0153-1.3654L39.42661,10.75939z
			 M39.44201,16.78798v1.3654l-1.1813,0.6753l-0.0154-1.3654L39.44201,16.78798z M39.44201,18.29229v1.3654l-1.1813,0.6736v-1.3646
			L39.44201,18.29229z M38.2607,21.85039v-1.3654l1.1813-0.6901l0.0153,1.3654L38.2607,21.85039z M40.73061,8.48888v1.3654
			l-1.18131,0.6893l-0.0153-1.3646L40.73061,8.48888z M40.7459,14.51838v1.3646l-1.1812,0.6901l-0.0154-1.3654L40.7459,14.51838z
			 M40.7459,16.02098v1.3654l-1.1812,0.6901v-1.3654L40.7459,16.02098z M40.7613,20.40899l-1.1966,0.6893v-1.3803l1.1966-0.6744
			V20.40899z M39.5647,19.57998v-1.3654l1.1812-0.6902l0.0154,1.3663L39.5647,19.57998z M42.05,10.74358v1.3655l-1.1813,0.6901
			l-0.0154-1.3654L42.05,10.74358z M42.05,12.24708v1.3811l-1.1813,0.6744v-1.3654L42.05,12.24708z M42.0654,19.65768
			l-1.1813,0.6736v-1.3646l1.1813-0.6901V19.65768z M42.0654,18.13858l-1.1813,0.6901l-0.0154-1.3654l1.1967-0.691V18.13858z
			 M42.0654,16.63508l-1.1967,0.6893v-1.3646l1.1967-0.6901V16.63508z M40.8687,15.80608v-1.3497l1.1046-0.6447l0.0767-0.0455
			l0.0154,1.3655L40.8687,15.80608z"></path>
  <g>
    <path fill="#384052" d="M24.051,20.55119l-9.7819,3.5091l-5.3823,3.8722c0,0-3.6217,2.0822-3.6217,8.1416
						c0,0-0.0579,3.6635-0.0089,8.191c0.01141,1.0515,0.51441,2.0601,1.4046,2.6198c1.5325,0.9632,4.5429,1.8937,10.0163,0.5253
						c9.1223-2.2805,13.0753-8.3619,13.3794-9.8067C30.3605,36.15918,31.0447,19.33488,24.051,20.55119z"></path>
    <path fill="#FFF" d="M24.0509,20.55158l-9.7817,3.5081l-1.292,0.9297c-0.8048,1.4393-1.6254,1.1696,2.4551,5.4308
									c4.4697,4.6675,8.3049,14.0124,8.3049,14.0124C26.06261,35.17918,25.8308,27.16969,24.0509,20.55158z"></path>
    <path fill="#F7C9A4" d="M14.2692,20.73749v3.3222c0,0,1.5763,2.4435,6.2509,3.0526c0.4306,0.0558,2.4801,0.1588,2.7693-0.1647
						c0.6695-0.7494,0.30521-2.4829-0.0009-6.1225v-2.2225L14.2692,20.73749z"></path>
    <path fill="#ED5E72" d="M20.5201,26.78119c0.8626,0.086,1.5292,0.6341,1.7442,1.1545l-0.7069,1.6481l0.7083,0.642
					c1.0614,2.4476,2.13391,6.0885,2.8731,9.7336l-1.4016,4.4732l-2.8815-6.3776l-0.5749-7.3701l0.3243-0.9381l-1.6132-1.0503
					C19.3058,27.92398,19.8308,27.08519,20.5201,26.78119z"></path>
    <path fill="#E3E6F0" d="M22.4249,28.85529c0,0-0.5307-1.6575-1.9048-2.0739c0,0,2.8018-3.1983,2.03151-5.3011l1.48679,1.1752
					C24.0384,22.65549,24.8817,25.39919,22.4249,28.85529z"></path>
    <path fill="#282E3A" d="M22.3008,21.32668c0,0,1.463-2.2554,4.1046,2.5517l-1.0692,1.7296l1.7295-0.0629
					c0,0,2.0535,8.88-3.3285,18.8875C23.7372,44.43259,27.944,26.71649,22.3008,21.32668z"></path>
    <path fill="#F8D5B4" d="M24.60061,13.01328c0,0,1.73769,9.4107-2.59531,11.0841c-4.3331,1.6735-9.2233-2.6575-10.1621-7.2196
					C10.9043,12.31569,21.4073,9.10328,24.60061,13.01328z"></path>
    <path fill="#E3E6F0" d="M14.2691,24.06029c-0.8459,0.3143-1.11849,2.2241-0.3631,2.864
					c1.909,1.6164,5.8609,2.5783,5.8609,2.5783c0.1873-1.3535,0.7532-2.7214,0.7532-2.7214
					C15.14861,25.30329,14.2691,24.06029,14.2691,24.06029z"></path>
    <path fill="#282E3A" d="M23.7372,44.43269c0,0-3.1164-10.5258-6.9915-14.5407c-3.875-4.0153-3.2484-4.7241-2.4766-5.8317
					c0.00751-0.2726-3.3948,0.7875-1.8268,5.4422c0.5224,1.5509,1.4672,2.5384,1.4672,2.5384l1.5519-1.3586l-0.7163,2.4475
					C14.7451,33.12978,18.2552,37.84169,23.7372,44.43269z"></path>
    <path fill="#4D5772" d="M16.6528,7.83998c0,0-5.3151,0.1729-5.0731,6.8594c0.0745,2.06,0.2842,3.2783,1.28991,5.0649
			c0.40159,0.7134,1.00209,1.439,1.68669,2.0855c0,0-1.8199-4.4707-0.65569-5.6485c1.14539-1.1582,1.35739,1.4297,1.22179,2.1133
			h0.64621c0.04229-0.4253-0.14571-1.1836,0.28729-1.6367c0.664-0.6958,1.073-1.5786,0.9139-2.2725c0,0,1.9599,1.2359,4.1216,0.2647
			c1.3818-0.6211,2.7991-0.7046,3.6421-0.6841c0.5594,0.0137,1.0143-0.4497,1.029-1.021
			C25.8163,10.88249,23.8338,7.54648,16.6528,7.83998z"></path>
  </g>
  <g>
    <polygon fill="#ED5E72" points="36.926 22.755 35.526 23.554 35.526 15.864 36.906 15.074 36.906 15.255"></polygon>
    <polygon fill="#FFDD94" points="40.777 17.405 40.777 20.519 42.158 19.732 42.158 16.598"></polygon>
    <polygon fill="#98D095" points="39.546 21.234 38.156 22.034 38.156 17.404 39.536 16.594 39.536 16.775"></polygon>
    <polygon fill="#895F4C" points="31.676 25.775 30.286 26.585 30.286 20.424 31.666 19.614 31.666 19.795"></polygon>
    <polygon fill="#86AEDC" points="34.286 19.634 34.286 24.275 32.906 25.065 32.906 20.424"></polygon>
  </g>
</svg>
